<svg width="35" height="35" viewBox="0 0 35 35" fill="none" xmlns="http://www.w3.org/2000/svg">
<g id="basketball-ball-solid 1">
<path id="Vector" d="M14.9808 1.15723C11.8901 1.58789 8.89819 2.80469 6.35786 4.83496L11.8196 10.126C13.7812 7.67871 14.875 4.5752 14.9808 1.15723ZM17.5 15.6289L28.6421 4.83496C25.6502 2.44238 22.0373 1.17773 18.375 1C18.2903 5.36816 16.8579 9.36035 14.2329 12.4639L17.5 15.6289ZM3.95867 7.15918C1.8629 9.62012 0.606855 12.5186 0.162298 15.5127C3.69052 15.4102 6.90121 14.3506 9.42036 12.4502L3.95867 7.15918ZM23.1663 21.1182C26.3629 18.582 30.4839 17.1943 35 17.1055C34.8165 13.5576 33.5111 10.0576 31.0413 7.15918L19.8992 17.9531L23.1663 21.1182ZM17.5 20.2773L6.35786 31.0713C9.3498 33.457 12.9627 34.7285 16.625 34.9062C16.7167 30.5312 18.1492 26.5391 20.7671 23.4424L17.5 20.2773ZM31.0413 28.7471C33.1371 26.2861 34.3931 23.3877 34.8377 20.3936C31.3024 20.5029 28.0988 21.5625 25.5796 23.4561L31.0413 28.7471ZM11.8337 14.7881C8.63004 17.3311 4.50907 18.7256 0 18.8008C0.183468 22.3486 1.48891 25.8486 3.95867 28.7471L15.1008 17.9531L11.8337 14.7881ZM20.0192 34.749C23.1099 34.3184 26.1018 33.1016 28.6421 31.0713L23.1804 25.7803C21.2258 28.2207 20.1321 31.3311 20.0192 34.749Z" fill="#FF0000"/>
</g>
</svg>
