<svg width="35" height="35" viewBox="0 0 35 35" fill="none" xmlns="http://www.w3.org/2000/svg">
<g id="gamepad-console 1">
<g id="Group">
<path id="Vector" d="M32.2654 10.901C30.4425 9.07818 28.2431 8.16669 25.6666 8.16669H9.33338C6.75717 8.16669 4.55709 9.07812 2.73449 10.901C0.911432 12.7238 0 14.9235 0 17.4999C0 20.0766 0.911687 22.276 2.73449 24.0988C4.55709 25.9215 6.75692 26.8333 9.33338 26.8333C11.6668 26.8333 13.7203 26.0552 15.4948 24.4997H19.5051C21.2796 26.0552 23.333 26.8333 25.6666 26.8333C28.2427 26.8333 30.4425 25.922 32.2654 24.0988C34.0884 22.2757 35 20.0767 35 17.4999C35 14.9235 34.0884 12.7238 32.2654 10.901ZM15.1665 18.6666C15.1665 18.8369 15.112 18.9767 15.0026 19.0857C14.8932 19.1952 14.7536 19.2498 14.5833 19.2498H11.0833V22.7499C11.0833 22.9201 11.0287 23.0599 10.9193 23.169C10.8099 23.2784 10.6704 23.333 10.5 23.333H8.16668C7.99659 23.333 7.85676 23.2784 7.74739 23.169C7.63815 23.0599 7.58362 22.9201 7.58362 22.7499V19.2498H4.08328C3.91319 19.2498 3.77336 19.1952 3.66399 19.0857C3.55474 18.9767 3.50022 18.8369 3.50022 18.6666V16.3333C3.50022 16.1632 3.55474 16.0234 3.66399 15.914C3.77336 15.8046 3.91319 15.7501 4.08328 15.7501H7.58349V12.25C7.58349 12.0799 7.63802 11.9401 7.74726 11.8307C7.85657 11.7212 7.99646 11.6668 8.16656 11.6668H10.4999C10.6702 11.6668 10.8098 11.7213 10.9192 11.8307C11.0286 11.9401 11.0831 12.0799 11.0831 12.25V15.7501H14.5832C14.7534 15.7501 14.8931 15.8046 15.0025 15.914C15.1119 16.0234 15.1664 16.1632 15.1664 16.3333V18.6666H15.1665ZM24.9831 21.4829C24.5273 21.9387 23.9773 22.1668 23.333 22.1668C22.6893 22.1668 22.1391 21.9387 21.6835 21.4829C21.2277 21.0275 20.9999 20.4774 20.9999 19.8333C20.9999 19.1891 21.2277 18.6392 21.6835 18.1836C22.1391 17.7282 22.6893 17.4999 23.333 17.4999C23.9773 17.4999 24.5273 17.7282 24.9831 18.1836C25.4385 18.6392 25.6666 19.1891 25.6666 19.8333C25.6666 20.4774 25.4385 21.0275 24.9831 21.4829ZM29.6493 16.8163C29.194 17.2719 28.6439 17.4999 27.9997 17.4999C27.3555 17.4999 26.8056 17.2721 26.35 16.8163C25.8942 16.3604 25.6664 15.8107 25.6664 15.1664C25.6664 14.5225 25.8942 13.9726 26.35 13.5169C26.8056 13.0611 27.3555 12.8333 27.9997 12.8333C28.6439 12.8333 29.194 13.0611 29.6493 13.5169C30.1051 13.9726 30.3333 14.5225 30.3333 15.1664C30.3333 15.8106 30.1054 16.3606 29.6493 16.8163Z" fill="#0057FF"/>
</g>
</g>
</svg>
