<svg width="35" height="35" viewBox="0 0 35 35" fill="none" xmlns="http://www.w3.org/2000/svg">
<path d="M33.3918 25.5674C33.1784 25.1253 32.9942 24.7435 32.9055 24.4498C32.3085 22.4718 31.5071 20.8994 30.5236 19.7765C29.2404 18.3113 27.6415 17.5684 25.7715 17.5684C24.2964 17.5684 22.8683 18.0217 21.6699 18.8586C20.4714 18.0217 19.0434 17.5684 17.5684 17.5684C15.6983 17.5684 14.0995 18.3113 12.8162 19.7765C11.8327 20.8994 11.0314 22.4718 10.4343 24.4498C10.3456 24.7435 10.1614 25.1253 9.948 25.5674C9.30761 26.8941 8.33984 28.899 8.33984 31.9238C8.33984 33.62 9.71975 35 11.416 35C13.6886 35 14.7173 33.8317 15.1802 32.8515C15.5578 32.0519 16.0098 31.9112 16.8198 31.9112C16.941 31.9112 17.0668 31.9144 17.1886 31.9175C17.3129 31.9206 17.4415 31.9238 17.5684 31.9238C19.0435 31.9238 20.4714 31.4705 21.67 30.6335C22.8683 31.4705 24.2964 31.9238 25.7715 31.9238C25.8983 31.9238 26.0269 31.9206 26.1514 31.9175C26.273 31.9144 26.399 31.9112 26.5202 31.9112C27.3302 31.9112 27.7821 32.0519 28.1598 32.8516C28.6225 33.8317 29.6513 35 31.9238 35C33.6201 35 35 33.62 35 31.9238C35 28.899 34.0322 26.8941 33.3918 25.5674ZM17.5684 27.8223C15.8721 27.8223 14.4922 26.4423 14.4922 24.7461C14.4922 23.0499 15.8721 21.6699 17.5684 21.6699C19.2646 21.6699 20.6445 23.0499 20.6445 24.7461C20.6445 26.4423 19.2646 27.8223 17.5684 27.8223ZM27.8175 25.7715H26.7921V26.7969C26.7921 27.3632 26.333 27.8223 25.7667 27.8223C25.2004 27.8223 24.7413 27.3632 24.7413 26.7969V25.7715H23.7159C23.1496 25.7715 22.6905 25.3124 22.6905 24.7461C22.6905 24.1798 23.1496 23.7207 23.7159 23.7207H24.7413V22.6953C24.7413 22.129 25.2004 21.6699 25.7667 21.6699C26.333 21.6699 26.7921 22.129 26.7921 22.6953V23.7207H27.8175C28.3838 23.7207 28.8429 24.1798 28.8429 24.7461C28.8429 25.3124 28.3838 25.7715 27.8175 25.7715Z" fill="#FFE600"/>
<path d="M17.5684 25.7715C18.1347 25.7715 18.5938 25.3124 18.5938 24.7461C18.5938 24.1798 18.1347 23.7207 17.5684 23.7207C17.0021 23.7207 16.543 24.1798 16.543 24.7461C16.543 25.3124 17.0021 25.7715 17.5684 25.7715Z" fill="#FFE600"/>
<path d="M21.6699 16.4794H21.6699V3.07617C21.6699 2.50988 21.2108 2.05078 20.6445 2.05078H19.6191V15.7475C20.3286 15.9089 21.0163 16.1537 21.6699 16.4794Z" fill="#FFE600"/>
<path d="M16.543 0H1.02539C0.459102 0 0 0.459102 0 1.02539V25.6803C0 26.2466 0.459102 26.7057 1.02539 26.7057H7.21513C7.5181 25.8844 7.8428 25.2112 8.1012 24.6759C8.23949 24.3895 8.42878 23.9971 8.47109 23.8571C9.15325 21.5973 10.0961 19.7697 11.2733 18.4254C12.9395 16.5231 15.1162 15.5176 17.5684 15.5176V1.02539C17.5684 0.459102 17.1092 0 16.543 0V0ZM8.78418 16.429C7.08798 16.429 5.70801 15.049 5.70801 13.3528C5.70801 11.6566 7.08798 10.2767 8.78418 10.2767C10.4804 10.2767 11.8604 11.6566 11.8604 13.3528C11.8604 15.049 10.4804 16.429 8.78418 16.429Z" fill="#FFE600"/>
<path d="M8.78418 14.3782C9.35049 14.3782 9.80957 13.9191 9.80957 13.3528C9.80957 12.7865 9.35049 12.3274 8.78418 12.3274C8.21787 12.3274 7.75879 12.7865 7.75879 13.3528C7.75879 13.9191 8.21787 14.3782 8.78418 14.3782Z" fill="#FFE600"/>
</svg>
